<svg height="342pt" preserveAspectRatio="xMidYMid meet" viewBox="0 0 419 342" width="419pt"
    xmlns="http://www.w3.org/2000/svg">
    <g transform="matrix(.1 0 0 -.1 0 342)">
        <path d="m1599 3355c-3-2-25-5-49-6-78-4-206-28-330-62-324-89-686-337-876-600-24-34-48-67-54-74-30-36-117-223-149-319-85-256-119-563-90-822 43-392 259-769 594-1037 27-22 56-46 63-52 7-7 34-25 60-40 26-14 54-32 62-39 66-54 352-174 505-211 225-54 523-75 692-48 236 38 530 156 732 293 143 97 295 268 416 467 45 75 194 366 215 419 5 13 62 69 127 124 65 54 140 123 167 153s90 97 140 149c157 164 249 300 298 440 40 117 51 180 46 271-5 97-26 145-91 216-36 39-123 93-150 93-4 0-28 14-52 30-64 44-114 38-143-17-10-18-8-26 11-49 19-22 33-27 73-29 27-1 59 2 70 6 25 9 71-16 127-69 93-89 111-192 65-372-28-109-112-242-257-406-20-23-54-62-75-88-21-25-44-46-50-46-16 0-81-48-137-101-63-59-187-139-216-139-58 0-90 28-122 105-17 41-31 78-31 83 0 25-66 179-84 197-21 21-37 68-62 185-19 90-18 110 6 110 10 0 42 5 70 11l50 11v52c0 61-22 141-49 175-15 19-28 24-67 25l-49 1 3 50c4 55 32 157 58 207 55 108 137 155 253 144 49-4 68-11 86-30 28-30 58-40 100-32 41 8 57 27 53 62-6 55-35 64-223 66-169 3-170 3-217-24-54-32-99-86-124-147l-17-42-42 63-42 63 50 25c73 37 108 91 114 177 4 54 1 78-13 109-62 133-255 174-385 82-13-9-20-8-34 5-9 9-20 17-25 17s-34 11-64 25-58 25-63 25c-4 0-20 6-34 14-14 7-49 19-78 26-28 6-53 16-56 20s-26 11-51 15c-26 4-54 11-63 15-9 5-38 14-66 20-27 6-77 17-110 24-79 18-405 42-416 31zm391-148c41-9 102-21 135-27 61-12 144-35 180-50 11-5 31-12 45-15 14-4 53-20 88-36s65-29 67-29c3 0 25-14 50-32 37-26 45-38 45-62 0-77 94-199 163-213 24-5 26-8 15-19-7-7-161-88-343-179l-330-166-100 7c-55 3-104 10-108 14-5 4 2 16 15 26 51 41 98 109 114 163 32 110-1 269-75 368-46 59-72 78-143 103-237 83-518-106-518-348 0-54 8-88 39-171 22-57 48-112 57-122 10-11 14-22 11-26-8-7-57 16-135 65-29 17-54 32-57 32-10 0-305 176-370 221-38 26-91 57-117 69-27 11-48 25-48 29 0 24 221 185 331 241 43 22 80 40 81 39 2 0 17 5 33 11 171 65 331 111 435 124 72 9 367-3 440-17zm903-101c44-18 95-78 103-122 14-78-43-171-118-192-44-12-111-1-147 25-14 10-37 40-50 66-31 62-23 122 22 174 53 60 122 78 190 49zm-1091-137c73-37 113-118 113-229-1-117-26-184-93-251-48-46-67-58-114-69s-65-11-103 0c-77 21-131 64-162 128-25 51-28 67-28 162 0 94 3 111 26 155 15 30 42 62 67 79 78 55 212 66 294 25zm-1042-311c119-63 386-221 420-248l25-20h-154-154l-164 103c-91 56-173 110-184 120-27 25-24 73 5 102 24 24 26 24 68 9 23-8 85-38 138-66zm2156-76c8-29 6-31-198-142l-167-92-113 7c-62 4-133 10-158 14l-45 6 180 97c99 53 234 124 300 158l120 62 38-43c20-24 40-54 43-67zm-2394-32c22-16 45-30 50-30s55-30 111-67l102-68-75-2c-182-6-368-8-366-3 25 49 120 200 127 200 5 0 28-13 51-30zm2416-130c-3-39-8-73-11-76-8-8-237 8-237 17 0 8 224 125 244 128 5 0 6-31 4-69zm-608-140c542-27 682-39 701-56 43-39 28-44-143-44-183 0-307-12-418-41-181-48-347-103-369-123-49-45-122-223-190-466-84-297-100-464-85-909 7-185 13-356 15-381 4-43 3-45-26-51-16-4-51-7-77-8l-48-1v203c0 111-3 293-7 404-6 210-9 221-49 206-15-6-16-34-12-307 3-166 3-345 0-399l-5-98-64 3-64 3 1 380c1 589-24 797-142 1155-76 233-133 329-206 350-100 28-293 43-539 42-285 0-267-6-242 78 14 47 6 46 304 60 127 6 262 12 300 14 148 7 1160-3 1365-14zm-1634-230c148-9 237-20 359-44l60-11 33-90c44-119 76-222 119-379l35-129-22-39c-21-38-95-144-270-388-50-69-105-146-123-172-87-127-169-238-176-238-12 0-221 220-249 263-15 22-34 50-42 63-182 274-258 572-229 899 8 87 36 260 44 275 4 7 288 1 461-10zm2254-2c0-33 26-154 49-223 10-33 22-80 26-105 8-48 44-144 102-269 45-99 48-110 45-214-3-116-46-242-124-367-44-70-194-265-233-303-46-45-150-117-249-172l-69-38 7 27c21 84 18 117-19 201-7 17-129 155-269 309-141 153-261 286-266 295-5 10-7 29-4 42 63 297 164 674 187 695 16 15 83 38 202 70 164 44 357 71 518 73 94 1 97 0 97-21zm-1620-775c0-16 5-110 11-210l11-182-229-229c-211-211-270-262-304-262-22 0-59 43-59 67 0 49 58 139 395 616 88 125 163 227 168 227 4 0 7-12 7-27zm726-295c251-260 394-439 394-495 0-40-32-87-73-106-47-23-51-22-92 14-35 31-249 281-318 372l-37 49v103c0 106 7 165 20 165 4 0 52-46 106-102zm-703-380c5-165 2-336-6-345-8-8-267 80-342 116l-60 29 93 90c133 131 296 282 303 282 3 0 8-78 12-172zm885-271c6-15 19-30 27-33 22-9 18-21-7-28-81-23-183-47-221-51-24-2-50-5-57-7-24-5-38 97-40 276 0 95 2 175 6 178 8 9 276-299 292-335z"/>
        <path d="m2758 3047c-59-50-65-118-15-172 97-106 258 7 192 135-22 42-53 60-105 60-32 0-53-7-72-23z"/>
    </g>
</svg>